# xmcd
#
# Track frame offsets: 
#        150
#        13067
#        27554
#        37931
#        49686
#        59168
#        71461
#        82232
#        93490
#        106490
#        117026
#        129975
#        138968
#        148853
#        160140
#        172313
#        185215
#        198358
#        211630
#        222610
#        237239
#        246780
#        256869
#        269332
#
# Disc length: 3727 seconds
#
# Revision: 0
# Processed by: cddbd v1.5.2PL0 Copyright (c) Steve Scherf et al.
# Submitted via: ExactAudioCopy v1.3
#
DISCID=6e0e8d18
DTITLE=Chenier (Clifton) - King Of Zydeco 1954-1960
DYEAR=2017
DGENRE=Blues
TTITLE0=Louisiana Stomp
TTITLE1=Clifton's Blues
TTITLE2=Tell Me
TTITLE3=Country Bred
TTITLE4=Rockin' Hop
TTITLE5=Eh, Petite Fille
TTITLE6=Boppin' The Rock
TTITLE7=Think It Over
TTITLE8=The Things I Did For You
TTITLE9=All Night Long
TTITLE10=Yesterday
TTITLE11=Squeeze-Box Boogie
TTITLE12=The Cat's Dreamin'
TTITLE13=Baby Please
TTITLE14=Where Can My Baby Be
TTITLE15=The Big Wheel
TTITLE16=My Soul
TTITLE17=Bayou Drive
TTITLE18=It Happened So Fast
TTITLE19=Goodbye Baby
TTITLE20=Hey Ma Ma
TTITLE21=Worried Life Blues
TTITLE22=Night And Day My Love
TTITLE23=Rockin' Accordian
EXTD=
EXTT0=
EXTT1=
EXTT2=
EXTT3=
EXTT4=
EXTT5=
EXTT6=
EXTT7=
EXTT8=
EXTT9=
EXTT10=
EXTT11=
EXTT12=
EXTT13=
EXTT14=
EXTT15=
EXTT16=
EXTT17=
EXTT18=
EXTT19=
EXTT20=
EXTT21=
EXTT22=
EXTT23=
PLAYORDER=
